<svg height="511pt" viewBox="-13 1 511 511.999" width="511pt" xmlns="http://www.w3.org/2000/svg"><g fill-rule="evenodd"><path d="m108.15625 185.945312c53.9375 0 97.660156 43.726563 97.660156 97.660157 0 13.960937-2.9375 27.238281-8.21875 39.25l-89.441406 179.144531-89.441406-179.144531c-5.277344-12.011719-8.214844-25.289063-8.214844-39.25 0-53.933594 43.722656-97.660157 97.65625-97.660157zm0 0" fill="#ff5d5d"/><path d="m108.15625 337.394531c29.628906 0 53.789062-24.164062 53.789062-53.789062s-24.160156-53.789063-53.789062-53.789063c-29.625 0-53.785156 24.164063-53.785156 53.789063s24.160156 53.789062 53.785156 53.789062zm0 0" fill="#a0e557"/><path d="m391.472656 10h83.921875l-24.257812 39.671875 24.257812 39.675781h-83.921875zm0 0" fill="#39ddd2"/><path d="m171.945312 283.605469c0-35.171875-28.613281-63.789063-63.789062-63.789063-35.171875 0-63.785156 28.617188-63.785156 63.789063s28.613281 63.789062 63.785156 63.789062c35.175781 0 63.789062-28.617187 63.789062-63.789062zm-107.574218 0c0-24.144531 19.640625-43.789063 43.785156-43.789063s43.789062 19.644532 43.789062 43.789063-19.644531 43.789062-43.789062 43.789062-43.785156-19.644531-43.785156-43.789062zm0 0"/><path d="m483.617188 83.628906-20.761719-33.957031 21.070312-34.453125c1.886719-3.089844 1.957031-6.953125.191407-10.109375-1.769532-3.15625-5.105469-5.109375-8.722657-5.109375h-83.921875c-5.523437 0-10 4.476562-10 10v115.277344h-57.777344c-27.953124 0-50.691406 22.738281-50.691406 50.691406v101.976562c0 27.953126 22.738282 50.691407 50.691406 50.691407h93.464844c16.921875 0 30.6875 13.769531 30.6875 30.691406v101.980469c0 16.921875-13.765625 30.6875-30.6875 30.6875h-292.832031l82.21875-164.675782c.074219-.144531.144531-.292968.207031-.441406 6.015625-13.683594 9.0625-28.242187 9.0625-43.273437 0-59.363281-48.292968-107.660157-107.65625-107.660157-59.363281 0-107.660156 48.296876-107.660156 107.660157 0 15.035156 3.046875 29.59375 9.058594 43.273437.066406.148438.136718.296875.207031.441406l26.851563 53.78125c2.46875 4.9375 8.476562 6.945313 13.414062 4.480469 4.941406-2.46875 6.949219-8.472656 4.480469-13.414062l-26.734375-53.554688c-4.828125-11.066406-7.277344-22.84375-7.277344-35.011719 0-48.332031 39.324219-87.65625 87.660156-87.65625 48.332032 0 87.65625 39.324219 87.65625 87.65625 0 12.167969-2.445312 23.945313-7.273437 35.007813l-80.382813 161-17.90625-35.855469c-2.46875-4.941406-8.472656-6.953125-13.414062-4.480468-4.9375 2.464843-6.945313 8.472656-4.476563 13.414062l26.847657 53.777344c.015624.03125.039062.058594.054687.09375.195313.375.40625.738281.644531 1.085937.03125.046875.066406.089844.101563.136719.207031.289062.429687.570312.667969.835938.074218.085937.152343.171874.230468.253906.269532.285156.554688.5625.855469.8125.011719.007812.019531.019531.027344.027344.316406.261718.652343.492187 1 .714843.082031.054688.167969.105469.253906.152344.304687.1875.621094.355469.949219.503906.054687.023438.105468.050781.15625.074219.382812.167969.777344.3125 1.1875.433594.070312.019531.140625.03125.210937.054687.335938.089844.675781.160157 1.023438.214844.105469.019531.210937.035156.316406.050781.414063.054688.835937.089844 1.269531.089844h309c27.949219 0 50.6875-22.738281 50.6875-50.691406v-101.980469c0-27.949219-22.738281-50.6875-50.6875-50.6875h-93.464844c-16.921874 0-30.691406-13.769531-30.691406-30.691406v-101.980469c0-16.921875 13.769532-30.691406 30.691406-30.691406h57.777344v24.585937c0 5.523438 4.480469 10 10 10 5.523438 0 10-4.476562 10-10v-70.515625h73.921875.019531c5.523438 0 10-4.480468 10-10 0-2.128906-.664062-4.097656-1.796874-5.71875zm-82.144532-4.28125v-59.347656h56.085938l-14.953125 24.457031c-1.957031 3.199219-1.957031 7.230469 0 10.433594l14.953125 24.457031zm0 0"/><path d="m63.4375 402.429688c-5.507812 0-10.003906 4.492187-10.003906 10 0 5.507812 4.496094 10 10.003906 10s10-4.492188 10-10c0-5.507813-4.492188-10-10-10zm0 0"/></g></svg>